<svg class="aero-logo__svg inline-block w-full object-contain lg:w-52 mx-auto" xmlns="http://www.w3.org/2000/svg" xmlns:xlink="http://www.w3.org/1999/xlink" width="246" height="103.159" viewBox="0 0 246 103.159">
        <defs>
            <clipPath id="logo-clip-path">
                <rect data-name="Rectangle 1076" width="246" height="103.159" fill="#fff"></rect>
            </clipPath>
        </defs>
        <g data-name="Group 384" clip-path="url(#logo-clip-path)">
            <path data-name="Path 274" d="M31.1,8.256c.793-.872,1.11-1.428,1.11-1.9,0-1.19-.793-1.507-4.919-1.746V2.7a79.284,79.284,0,0,0,8.092.4,80.7,80.7,0,0,0,8.17-.4v1.9c-4.759.238-6.584,1.111-9.519,4.2L20.388,23.883,38,49.031c2.7,3.807,4.522,4.918,9.043,5.156v1.9a87.809,87.809,0,0,0-10.313-.635,91.029,91.029,0,0,0-10.391.635v-1.9c4.442-.4,5.473-.793,5.473-2.142,0-.635-.158-.952-1.349-2.776l-14.2-21.18L13.01,31.578V48.872c0,4.2.714,4.839,6.347,5.315v1.9a69.953,69.953,0,0,0-9.282-.635A87.116,87.116,0,0,0,0,56.091v-1.9c5.791-.475,6.584-1.03,6.584-5.315V9.922C6.585,5.638,5.792,5,0,4.607V2.7c4.839.4,7.139.556,10.074.556S15.232,3.1,19.595,2.7v1.9C13.8,5,13.09,5.638,13.09,9.922V28.168Z" transform="translate(0 -1.275)" fill="#fff"></path>
            <path data-name="Path 275" d="M140.047,38.957c0,5.315-.714,8.25-2.7,11.105-3.094,4.364-8.329,6.664-15.073,6.664-5.87,0-10.709-1.825-13.962-5.394-2.7-2.935-3.728-6.108-3.728-11.74V9.923c0-4.284-.635-4.839-6.505-5.315V2.7c4.68.4,6.981.556,9.916.556,2.777,0,5.156-.159,9.916-.556v1.9c-5.791.4-6.584,1.031-6.584,5.315v30.3c0,5,.635,7.219,2.538,9.281,2.221,2.46,5.633,3.729,10,3.729,5.236,0,9.6-1.983,11.661-5.236,1.27-2.062,1.825-4.76,1.825-8.647V9.923c0-4.284-.635-4.839-6.505-5.315V2.7c4.125.317,5.95.4,8.012.4,2.142,0,3.887-.08,7.695-.4v1.9c-5.87.476-6.5,1.031-6.5,5.315Z" transform="translate(-46.281 -1.276)" fill="#fff"></path>
            <path data-name="Path 276" d="M234.075,55.854h-34.9v-1.9c5.87-.476,6.505-1.031,6.505-5.315V9.923c0-4.284-.635-4.839-6.505-5.315V2.7c4.68.4,6.981.556,9.837.556s5.236-.159,10-.556v1.9c-5.791.4-6.584,1.031-6.584,5.315V48.476c0,3.728,1.031,4.68,5.315,4.68h5.632c6.266,0,8.726-2.3,10.709-10.075H235.9Z" transform="translate(-93.979 -1.276)" fill="#fff"></path>
            <path data-name="Path 277" d="M292.785,39.267l-2.617,7.456a13.3,13.3,0,0,0-.952,3.729c0,1.666,1.189,2.221,5.236,2.459v1.9a71.792,71.792,0,0,0-15.072,0v-1.9c4.839-.317,5.87-1.031,7.615-5.632L305.081,0l16.342,48.152c1.269,3.648,2.379,4.362,7.377,4.759v1.9a74.149,74.149,0,0,0-19.356,0v-1.9c3.807-.317,5.157-.952,5.078-2.459a16.553,16.553,0,0,0-.477-2.618l-2.7-8.567Zm17.77-2.459L302.78,12.534l-9.043,24.274Z" transform="translate(-131.826)" fill="#fff"></path>
            <path data-name="Path 278" d="M395.737,49.084c0,4.284.634,4.76,6.5,5.315v1.9a85.486,85.486,0,0,0-9.757-.634,89,89,0,0,0-9.916.634V54.4c5.87-.556,6.505-1.031,6.505-5.315V10.373c0-4.283-.793-4.918-6.505-5.315v-1.9h21.26c5,0,8.25.793,10.948,2.618A13.607,13.607,0,0,1,420.8,17.116a12.864,12.864,0,0,1-6.743,11.344,23.346,23.346,0,0,1-6.267,1.983c3.252.952,4.839,2.459,6.742,6.822L420.01,49.8c1.745,3.807,2.618,4.442,6.505,4.6v1.9c-2.38-.159-3.649-.238-5.236-.238-1.507,0-2.777.079-5.236.238-.793-1.587-1.269-2.776-2.221-4.839l-6.109-14.2c-2.142-5.077-3.966-6.346-8.964-6.346h-3.014ZM402.4,28.46c7.615,0,11.661-4.046,11.661-11.661,0-7.377-3.808-11.185-11.186-11.185h-7.06V28.46Z" transform="translate(-180.516 -1.488)" fill="#fff"></path>
            <path data-name="Path 279" d="M171.876,174.59v-.273H177.8q.118.887.234,1.763c-.265.061-.28.045-.361-.161a6.357,6.357,0,0,0-.315-.7,1.167,1.167,0,0,0-1.094-.547c-.683-.014-1.366-.005-2.05-.006a.2.2,0,0,0-.051.015v3.25c.049,0,.1.008.146.008h1.76c.056,0,.112,0,.168-.005.325-.022.47-.118.558-.392a2.4,2.4,0,0,0,.088-.407c.024-.182.018-.183.224-.178.035,0,.069.005.114.01V179.3h-.308c-.023-.145-.04-.287-.068-.427-.078-.379-.276-.542-.712-.55-.637-.011-1.275,0-1.912,0a.355.355,0,0,0-.058.012c0,.045-.008.092-.008.14q0,1.346,0,2.692a2.745,2.745,0,0,0,.031.36.392.392,0,0,0,.341.322,1.294,1.294,0,0,0,.3.052c.52,0,1.04,0,1.559-.012a1.252,1.252,0,0,0,1.151-.721,6.2,6.2,0,0,0,.273-.624c.081-.215.085-.223.369-.17-.035.231-.07.465-.107.7-.058.358-.12.715-.174,1.073-.014.1-.045.137-.168.137q-2.854,0-5.707,0c-.045,0-.089-.005-.142-.008v-.275c.2-.027.4-.05.589-.081.343-.054.484-.187.52-.49a2.266,2.266,0,0,0,.01-.268q0-2.853,0-5.706c0-.12-.017-.24-.024-.36a.387.387,0,0,0-.329-.361c-.185-.047-.377-.074-.566-.109-.064-.011-.13-.016-.2-.024" transform="translate(-81.1 -82.252)" fill="#fff"></path>
            <path data-name="Path 280" d="M191.074,174.646c.1-.17.215-.334.305-.507a.242.242,0,0,1,.322-.132v2.19c-.054,0-.109,0-.163,0a.137.137,0,0,1-.175-.119,2.878,2.878,0,0,0-.449-.976,1.921,1.921,0,0,0-3.034.07,1.171,1.171,0,0,0,.484,1.726c.4.228.839.4,1.258.607.5.239,1,.472,1.481.725A1.8,1.8,0,0,1,192.153,180a2.357,2.357,0,0,1-2.442,2.21,3.576,3.576,0,0,1-2.341-.622c-.019-.014-.041-.024-.082-.047-.143.221-.278.438-.423.651a.259.259,0,0,1-.14.1c-.113.026-.172-.009-.171-.13.007-.612,0-1.223,0-1.835v-.605l.1-.014c.156-.022.215.025.259.173a4.514,4.514,0,0,0,.377.956,2.157,2.157,0,0,0,2.139,1,1.759,1.759,0,0,0,1.529-.84,1.352,1.352,0,0,0-.6-1.952c-.624-.329-1.279-.612-1.916-.921-.263-.127-.521-.264-.775-.4a1.733,1.733,0,0,1-.94-1.922,2.23,2.23,0,0,1,2.225-1.742,2.882,2.882,0,0,1,2.122.587" transform="translate(-88.026 -82.098)" fill="#fff"></path>
            <path data-name="Path 281" d="M246.283,185.252a24.387,24.387,0,0,0,3.023-4.027c-.3.058-.557.124-.82.156a2.643,2.643,0,0,1-2.446-.94,3.716,3.716,0,0,1-.877-2.247,4.308,4.308,0,0,1,.588-2.718,2.963,2.963,0,0,1,2.992-1.466,3.03,3.03,0,0,1,2.7,2.252,5.249,5.249,0,0,1-.3,3.872,12.277,12.277,0,0,1-2.386,3.366c-.538.567-1.1,1.109-1.661,1.656a.4.4,0,0,1-.228.092c-.173.014-.348,0-.578,0m3.995-7.531c-.02-.33-.027-.662-.063-.99a3.5,3.5,0,0,0-.481-1.562,1.521,1.521,0,0,0-1.666-.66,1.713,1.713,0,0,0-1.24,1.24,6.583,6.583,0,0,0-.234,2.614,4.288,4.288,0,0,0,.4,1.609,1.535,1.535,0,0,0,1.922.817,1.605,1.605,0,0,0,1.079-1.111,5.779,5.779,0,0,0,.287-1.957" transform="translate(-115.672 -82.096)" fill="#fff"></path>
            <path data-name="Path 282" d="M205.588,176.11c-.064,0-.119,0-.174,0a.14.14,0,0,1-.172-.108c-.072-.209-.153-.416-.246-.618a1.144,1.144,0,0,0-1.092-.714c-.356-.008-.712,0-1.087,0,0,.044-.008.091-.008.138q0,3.2,0,6.4c0,.1.013.2.016.294a.4.4,0,0,0,.35.39c.24.054.488.083.746.125v.273a16.342,16.342,0,0,0-3.379,0v-.289c.17-.021.34-.038.51-.063.448-.067.591-.2.593-.6.006-1.161,0-2.322,0-3.483q0-1.507,0-3.014v-.19a4.2,4.2,0,0,0-1.474.125,1,1,0,0,0-.543.453c-.119.221-.221.45-.32.679s-.106.228-.4.174c.061-.306.121-.612.183-.918.049-.246.109-.491.147-.738.017-.115.065-.146.194-.145.791,0,1.581,0,2.371,0,1.071,0,2.142,0,3.213,0,.156,0,.218.031.245.175.095.511.209,1.019.315,1.528a.812.812,0,0,1,.007.12" transform="translate(-93.858 -82.238)" fill="#fff"></path>
            <path data-name="Path 283" d="M280.343,175.5h-5.394v-1.2h6.775c-.028.072-.049.134-.076.193q-2.389,5.253-4.775,10.507a.233.233,0,0,1-.25.167c-.356-.011-.712,0-1.114,0l4.835-9.663" transform="translate(-129.735 -82.243)" fill="#fff"></path>
            <path data-name="Path 284" d="M266.788,174.3c-.115.257-.22.494-.327.73q-2.261,4.973-4.519,9.946a.269.269,0,0,1-.295.188c-.343-.012-.687,0-1.081,0l4.831-9.654c-.1-.006-.169-.013-.24-.013-1.646,0-3.292,0-4.939,0-.181,0-.236-.049-.228-.229.014-.317,0-.635,0-.968Z" transform="translate(-122.677 -82.246)" fill="#fff"></path>
            <path data-name="Path 285" d="M233.914,173.981a24.452,24.452,0,0,0,4.317,0v.5c-.265.023-.519.04-.771.068-.537.059-.695.234-.7.777q0,2.691,0,5.382c0,.05,0,.1,0,.15a.616.616,0,0,0,.63.672c.273.029.547.042.824.063v.5a23.98,23.98,0,0,0-4.293,0v-.5c.223-.019.446-.035.669-.059a2.1,2.1,0,0,0,.368-.068.521.521,0,0,0,.409-.519c.006-.1.007-.2.007-.3q0-2.6,0-5.195v-.037c0-.667-.157-.834-.828-.891-.162-.014-.325-.021-.487-.024-.108,0-.161-.04-.153-.156s0-.222,0-.359" transform="translate(-110.372 -82.092)" fill="#fff"></path>
            <path data-name="Path 286" d="M217.365,186.114a.9.9,0,1,1-.913.892.9.9,0,0,1,.913-.892" transform="translate(-102.133 -87.818)" fill="#fff"></path>
            <path data-name="Path 287" d="M154.788,131.687c0,1.063.155,1.2,1.613,1.319v.472a21.474,21.474,0,0,0-2.429-.157,20.971,20.971,0,0,0-2.43.157v-.472c1.439-.138,1.594-.256,1.594-1.319v-9.6c0-1.063-.194-1.22-1.594-1.319v-.472H160l.35,2.952H159.9c-.486-1.869-.933-2.342-2.294-2.342h-2.818v5.392h2.779c.874,0,1.089-.3,1.147-1.613h.486v3.858h-.486c-.039-1.3-.311-1.634-1.244-1.634h-2.682Z" transform="translate(-71.505 -56.761)" fill="#fff"></path>
            <path data-name="Path 288" d="M174,129.252l-.641,1.85a3.334,3.334,0,0,0-.233.924c0,.414.291.551,1.282.61v.472a17.4,17.4,0,0,0-3.692,0v-.472c1.185-.079,1.438-.256,1.865-1.4l4.431-11.729,4,11.946c.311.905.583,1.082,1.807,1.18v.472a18,18,0,0,0-4.742,0v-.472c.933-.079,1.263-.236,1.244-.61a4.145,4.145,0,0,0-.117-.649l-.661-2.125Zm4.354-.611-1.9-6.021-2.216,6.021Z" transform="translate(-80.551 -56.391)" fill="#fff"></path>
            <path data-name="Path 289" d="M200.264,129.215c.389,2.342,1.555,3.542,3.44,3.542a2.526,2.526,0,0,0,2.681-2.6,2.261,2.261,0,0,0-.874-1.85,12.028,12.028,0,0,0-1.866-1.082,10.9,10.9,0,0,1-2.8-1.713,2.927,2.927,0,0,1-.816-2.164,3.407,3.407,0,0,1,3.712-3.464,3.21,3.21,0,0,1,2.527,1.023l.583-1.1h.35v3.621h-.467c-.447-2.027-1.34-2.952-2.856-2.952a2.388,2.388,0,0,0-2.449,2.4,2.021,2.021,0,0,0,1.108,1.811,20.131,20.131,0,0,0,1.885,1.023,11.666,11.666,0,0,1,2.216,1.3,3.1,3.1,0,0,1,1.185,2.6,3.65,3.65,0,0,1-3.887,3.758,4.361,4.361,0,0,1-3.071-1.141l-.7,1.259h-.35v-4.27Z" transform="translate(-94.284 -56.532)" fill="#fff"></path>
            <path data-name="Path 290" d="M230.324,126.222v-4.251c0-1.063-.155-1.2-1.594-1.319v-.472c1.147.1,1.711.138,2.43.138s1.282-.04,2.39-.138v.472c-1.438.118-1.593.256-1.593,1.319v9.662c0,1.063.155,1.181,1.593,1.319v.472a20.984,20.984,0,0,0-2.39-.157,21.892,21.892,0,0,0-2.43.157v-.472c1.439-.138,1.594-.256,1.594-1.319v-4.8h-5.461v4.8c0,1.063.155,1.181,1.593,1.319v.472a21.869,21.869,0,0,0-2.429-.157,21.014,21.014,0,0,0-2.39.157v-.472c1.438-.138,1.593-.256,1.593-1.319v-9.662c0-1.063-.155-1.2-1.593-1.319v-.472c1.108.1,1.672.138,2.39.138s1.283-.04,2.429-.138v.472c-1.438.118-1.593.256-1.593,1.319v4.251Z" transform="translate(-104.58 -56.708)" fill="#fff"></path>
            <path data-name="Path 291" d="M251.857,121.971c0-1.063-.156-1.2-1.594-1.319v-.472c1.147.1,1.71.138,2.41.138s1.283-.04,2.449-.138v.472c-1.419.1-1.613.256-1.613,1.319v9.662c0,1.063.156,1.2,1.613,1.319v.472a22.743,22.743,0,0,0-2.449-.157,21.842,21.842,0,0,0-2.41.157v-.472c1.438-.138,1.594-.256,1.594-1.319Z" transform="translate(-118.087 -56.707)" fill="#fff"></path>
            <path data-name="Path 292" d="M276.5,126.7c0,4.034-2.06,6.73-5.17,6.73-3.206,0-5.247-2.676-5.247-6.848,0-4.074,2.06-6.769,5.189-6.769,3.206,0,5.228,2.657,5.228,6.888m-8.668-.137c0,3.975,1.3,6.317,3.5,6.317,2.177,0,3.421-2.283,3.421-6.238,0-4.015-1.224-6.278-3.44-6.278-2.2,0-3.478,2.283-3.478,6.2" transform="translate(-125.553 -56.532)" fill="#fff"></path>
            <path data-name="Path 293" d="M302.4,133.76c-.466-.748-1.147-1.791-2.021-3.129l-5.714-8.738v9.741c0,1.063.175,1.2,1.612,1.319v.472c-1.087-.079-1.516-.1-1.963-.1-.486,0-.913.02-1.9.1v-.472c1.438-.118,1.613-.256,1.613-1.319V121.244c-.33-.393-.739-.531-1.632-.59v-.472c.681.04,1.049.059,1.652.059.525,0,.836-.02,1.4-.059l6.589,9.978v-8.187c0-1.063-.175-1.2-1.594-1.319v-.472c1.01.079,1.458.1,1.963.1.524,0,.953-.02,1.885-.1v.472c-1.419.118-1.593.256-1.593,1.319V133.76Z" transform="translate(-137.967 -56.708)" fill="#fff"></path>
            <rect data-name="Rectangle 1074" width="76.581" height="0.528" transform="translate(0 70.013)" fill="#fff"></rect>
            <rect data-name="Rectangle 1075" width="76.581" height="0.528" transform="translate(169.419 70.013)" fill="#fff"></rect>
        </g>
    </svg>